<mxfile host="app.diagrams.net" modified="2024-05-28T04:13:15.289Z" agent="Mozilla/5.0 (Windows NT 10.0; WOW64; x64) AppleWebKit/537.36 (KHTML, like Gecko) Chrome/123.0.0.0 Safari/537.36" version="24.4.9" etag="ZNeCmcefA2sBmAOzzA21" type="github">
  <diagram name="Halaman-1" id="aHUzVRyBcbYeAqdHGK-i">
    <mxGraphModel>
      <root>
        <mxCell id="0" />
        <mxCell id="1" parent="0" />
      </root>
    </mxGraphModel>
  </diagram>
</mxfile>
